<svg xmlns:xlink="http://www.w3.org/1999/xlink" width="73.373ex" height="28.509ex" style="font-size: 15px; vertical-align: -13.671ex;" viewBox="0 -6388.6 31591 12274.8" role="img" focusable="false" xmlns="http://www.w3.org/2000/svg">
<defs>
<path stroke-width="1" id="E1-MJMATHI-4B" d="M285 628Q285 635 228 637Q205 637 198 638T191 647Q191 649 193 661Q199 681 203 682Q205 683 214 683H219Q260 681 355 681Q389 681 418 681T463 682T483 682Q500 682 500 674Q500 669 497 660Q496 658 496 654T495 648T493 644T490 641T486 639T479 638T470 637T456 637Q416 636 405 634T387 623L306 305Q307 305 490 449T678 597Q692 611 692 620Q692 635 667 637Q651 637 651 648Q651 650 654 662T659 677Q662 682 676 682Q680 682 711 681T791 680Q814 680 839 681T869 682Q889 682 889 672Q889 650 881 642Q878 637 862 637Q787 632 726 586Q710 576 656 534T556 455L509 418L518 396Q527 374 546 329T581 244Q656 67 661 61Q663 59 666 57Q680 47 717 46H738Q744 38 744 37T741 19Q737 6 731 0H720Q680 3 625 3Q503 3 488 0H478Q472 6 472 9T474 27Q478 40 480 43T491 46H494Q544 46 544 71Q544 75 517 141T485 216L427 354L359 301L291 248L268 155Q245 63 245 58Q245 51 253 49T303 46H334Q340 37 340 35Q340 19 333 5Q328 0 317 0Q314 0 280 1T180 2Q118 2 85 2T49 1Q31 1 31 11Q31 13 34 25Q38 41 42 43T65 46Q92 46 125 49Q139 52 144 61Q147 65 216 339T285 628Z"></path>
<path stroke-width="1" id="E1-MJMATHI-4C" d="M228 637Q194 637 192 641Q191 643 191 649Q191 673 202 682Q204 683 217 683Q271 680 344 680Q485 680 506 683H518Q524 677 524 674T522 656Q517 641 513 637H475Q406 636 394 628Q387 624 380 600T313 336Q297 271 279 198T252 88L243 52Q243 48 252 48T311 46H328Q360 46 379 47T428 54T478 72T522 106T564 161Q580 191 594 228T611 270Q616 273 628 273H641Q647 264 647 262T627 203T583 83T557 9Q555 4 553 3T537 0T494 -1Q483 -1 418 -1T294 0H116Q32 0 32 10Q32 17 34 24Q39 43 44 45Q48 46 59 46H65Q92 46 125 49Q139 52 144 61Q147 65 216 339T285 628Q285 635 228 637Z"></path>
<path stroke-width="1" id="E1-MJMAIN-28" d="M94 250Q94 319 104 381T127 488T164 576T202 643T244 695T277 729T302 750H315H319Q333 750 333 741Q333 738 316 720T275 667T226 581T184 443T167 250T184 58T225 -81T274 -167T316 -220T333 -241Q333 -250 318 -250H315H302L274 -226Q180 -141 137 -14T94 250Z"></path>
<path stroke-width="1" id="E1-MJMATHI-71" d="M33 157Q33 258 109 349T280 441Q340 441 372 389Q373 390 377 395T388 406T404 418Q438 442 450 442Q454 442 457 439T460 434Q460 425 391 149Q320 -135 320 -139Q320 -147 365 -148H390Q396 -156 396 -157T393 -175Q389 -188 383 -194H370Q339 -192 262 -192Q234 -192 211 -192T174 -192T157 -193Q143 -193 143 -185Q143 -182 145 -170Q149 -154 152 -151T172 -148Q220 -148 230 -141Q238 -136 258 -53T279 32Q279 33 272 29Q224 -10 172 -10Q117 -10 75 30T33 157ZM352 326Q329 405 277 405Q242 405 210 374T160 293Q131 214 119 129Q119 126 119 118T118 106Q118 61 136 44T179 26Q233 26 290 98L298 109L352 326Z"></path>
<path stroke-width="1" id="E1-MJMATHI-3D5" d="M409 688Q413 694 421 694H429H442Q448 688 448 686Q448 679 418 563Q411 535 404 504T392 458L388 442Q388 441 397 441T429 435T477 418Q521 397 550 357T579 260T548 151T471 65T374 11T279 -10H275L251 -105Q245 -128 238 -160Q230 -192 227 -198T215 -205H209Q189 -205 189 -198Q189 -193 211 -103L234 -11Q234 -10 226 -10Q221 -10 206 -8T161 6T107 36T62 89T43 171Q43 231 76 284T157 370T254 422T342 441Q347 441 348 445L378 567Q409 686 409 688ZM122 150Q122 116 134 91T167 53T203 35T237 27H244L337 404Q333 404 326 403T297 395T255 379T211 350T170 304Q152 276 137 237Q122 191 122 150ZM500 282Q500 320 484 347T444 385T405 400T381 404H378L332 217L284 29Q284 27 285 27Q293 27 317 33T357 47Q400 66 431 100T475 170T494 234T500 282Z"></path>
<path stroke-width="1" id="E1-MJMAIN-7A" d="M42 263Q44 270 48 345T53 423V431H393Q399 425 399 415Q399 403 398 402L381 378Q364 355 331 309T265 220L134 41L182 40H206Q254 40 283 46T331 77Q352 105 359 185L361 201Q361 202 381 202H401V196Q401 195 393 103T384 6V0H209L34 1L31 3Q28 8 28 17Q28 30 29 31T160 210T294 394H236Q169 393 152 388Q127 382 113 367Q89 344 82 264V255H42V263Z"></path>
<path stroke-width="1" id="E1-MJMAIN-7C" d="M139 -249H137Q125 -249 119 -235V251L120 737Q130 750 139 750Q152 750 159 735V-235Q151 -249 141 -249H139Z"></path>
<path stroke-width="1" id="E1-MJMAIN-78" d="M201 0Q189 3 102 3Q26 3 17 0H11V46H25Q48 47 67 52T96 61T121 78T139 96T160 122T180 150L226 210L168 288Q159 301 149 315T133 336T122 351T113 363T107 370T100 376T94 379T88 381T80 383Q74 383 44 385H16V431H23Q59 429 126 429Q219 429 229 431H237V385Q201 381 201 369Q201 367 211 353T239 315T268 274L272 270L297 304Q329 345 329 358Q329 364 327 369T322 376T317 380T310 384L307 385H302V431H309Q324 428 408 428Q487 428 493 431H499V385H492Q443 385 411 368Q394 360 377 341T312 257L296 236L358 151Q424 61 429 57T446 50Q464 46 499 46H516V0H510H502Q494 1 482 1T457 2T432 2T414 3Q403 3 377 3T327 1L304 0H295V46H298Q309 46 320 51T331 63Q331 65 291 120L250 175Q249 174 219 133T185 88Q181 83 181 74Q181 63 188 55T206 46Q208 46 208 23V0H201Z"></path>
<path stroke-width="1" id="E1-MJMATHI-69" d="M184 600Q184 624 203 642T247 661Q265 661 277 649T290 619Q290 596 270 577T226 557Q211 557 198 567T184 600ZM21 287Q21 295 30 318T54 369T98 420T158 442Q197 442 223 419T250 357Q250 340 236 301T196 196T154 83Q149 61 149 51Q149 26 166 26Q175 26 185 29T208 43T235 78T260 137Q263 149 265 151T282 153Q302 153 302 143Q302 135 293 112T268 61T223 11T161 -11Q129 -11 102 10T74 74Q74 91 79 106T122 220Q160 321 166 341T173 380Q173 404 156 404H154Q124 404 99 371T61 287Q60 286 59 284T58 281T56 279T53 278T49 278T41 278H27Q21 284 21 287Z"></path>
<path stroke-width="1" id="E1-MJMAIN-29" d="M60 749L64 750Q69 750 74 750H86L114 726Q208 641 251 514T294 250Q294 182 284 119T261 12T224 -76T186 -143T145 -194T113 -227T90 -246Q87 -249 86 -250H74Q66 -250 63 -250T58 -247T55 -238Q56 -237 66 -225Q221 -64 221 250T66 725Q56 737 55 738Q55 746 60 749Z"></path>
<path stroke-width="1" id="E1-MJMATHI-70" d="M23 287Q24 290 25 295T30 317T40 348T55 381T75 411T101 433T134 442Q209 442 230 378L240 387Q302 442 358 442Q423 442 460 395T497 281Q497 173 421 82T249 -10Q227 -10 210 -4Q199 1 187 11T168 28L161 36Q160 35 139 -51T118 -138Q118 -144 126 -145T163 -148H188Q194 -155 194 -157T191 -175Q188 -187 185 -190T172 -194Q170 -194 161 -194T127 -193T65 -192Q-5 -192 -24 -194H-32Q-39 -187 -39 -183Q-37 -156 -26 -148H-6Q28 -147 33 -136Q36 -130 94 103T155 350Q156 355 156 364Q156 405 131 405Q109 405 94 377T71 316T59 280Q57 278 43 278H29Q23 284 23 287ZM178 102Q200 26 252 26Q282 26 310 49T356 107Q374 141 392 215T411 325V331Q411 405 350 405Q339 405 328 402T306 393T286 380T269 365T254 350T243 336T235 326L232 322Q232 321 229 308T218 264T204 212Q178 106 178 102Z"></path>
<path stroke-width="1" id="E1-MJMATHI-3B8" d="M35 200Q35 302 74 415T180 610T319 704Q320 704 327 704T339 705Q393 701 423 656Q462 596 462 495Q462 380 417 261T302 66T168 -10H161Q125 -10 99 10T60 63T41 130T35 200ZM383 566Q383 668 330 668Q294 668 260 623T204 521T170 421T157 371Q206 370 254 370L351 371Q352 372 359 404T375 484T383 566ZM113 132Q113 26 166 26Q181 26 198 36T239 74T287 161T335 307L340 324H145Q145 321 136 286T120 208T113 132Z"></path>
<path stroke-width="1" id="E1-MJMAIN-3D" d="M56 347Q56 360 70 367H707Q722 359 722 347Q722 336 708 328L390 327H72Q56 332 56 347ZM56 153Q56 168 72 173H708Q722 163 722 153Q722 140 707 133H70Q56 140 56 153Z"></path>
<path stroke-width="1" id="E1-MJAMS-45" d="M12 666Q12 675 24 683H582Q590 680 593 672V588Q593 514 591 502T575 490Q567 490 563 495T555 517Q552 556 517 590Q486 623 445 634T340 648H282Q266 636 264 620T260 492V370H277Q329 375 358 391T404 439Q420 480 420 506Q420 529 436 529Q445 529 451 521Q455 517 455 361Q455 333 455 298T456 253Q456 217 453 207T437 197Q420 196 420 217Q420 240 406 270Q377 328 284 335H260V201Q261 174 261 134Q262 73 264 61T278 38Q281 36 282 35H331Q400 35 449 50Q571 93 602 179Q605 203 622 203Q629 203 634 197T640 183Q638 181 624 95T604 3L600 -1H24Q12 5 12 16Q12 35 51 35Q92 38 97 52Q102 60 102 341T97 632Q91 645 51 648Q12 648 12 666ZM137 341Q137 131 136 89T130 37Q129 36 129 35H235Q233 41 231 48L226 61V623L231 635L235 648H129Q132 641 133 638T135 603T137 517T137 341ZM557 603V648H504Q504 646 515 639Q527 634 542 619L557 603ZM420 317V397L406 383Q394 370 380 363L366 355Q373 350 382 346Q400 333 409 328L420 317ZM582 61L586 88Q585 88 582 83Q557 61 526 46L511 37L542 35H577Q577 36 578 39T580 49T582 61Z"></path>
<path stroke-width="1" id="E1-MJMAIN-6C" d="M42 46H56Q95 46 103 60V68Q103 77 103 91T103 124T104 167T104 217T104 272T104 329Q104 366 104 407T104 482T104 542T103 586T103 603Q100 622 89 628T44 637H26V660Q26 683 28 683L38 684Q48 685 67 686T104 688Q121 689 141 690T171 693T182 694H185V379Q185 62 186 60Q190 52 198 49Q219 46 247 46H263V0H255L232 1Q209 2 183 2T145 3T107 3T57 1L34 0H26V46H42Z"></path>
<path stroke-width="1" id="E1-MJMAIN-6F" d="M28 214Q28 309 93 378T250 448Q340 448 405 380T471 215Q471 120 407 55T250 -10Q153 -10 91 57T28 214ZM250 30Q372 30 372 193V225V250Q372 272 371 288T364 326T348 362T317 390T268 410Q263 411 252 411Q222 411 195 399Q152 377 139 338T126 246V226Q126 130 145 91Q177 30 250 30Z"></path>
<path stroke-width="1" id="E1-MJMAIN-67" d="M329 409Q373 453 429 453Q459 453 472 434T485 396Q485 382 476 371T449 360Q416 360 412 390Q410 404 415 411Q415 412 416 414V415Q388 412 363 393Q355 388 355 386Q355 385 359 381T368 369T379 351T388 325T392 292Q392 230 343 187T222 143Q172 143 123 171Q112 153 112 133Q112 98 138 81Q147 75 155 75T227 73Q311 72 335 67Q396 58 431 26Q470 -13 470 -72Q470 -139 392 -175Q332 -206 250 -206Q167 -206 107 -175Q29 -140 29 -75Q29 -39 50 -15T92 18L103 24Q67 55 67 108Q67 155 96 193Q52 237 52 292Q52 355 102 398T223 442Q274 442 318 416L329 409ZM299 343Q294 371 273 387T221 404Q192 404 171 388T145 343Q142 326 142 292Q142 248 149 227T179 192Q196 182 222 182Q244 182 260 189T283 207T294 227T299 242Q302 258 302 292T299 343ZM403 -75Q403 -50 389 -34T348 -11T299 -2T245 0H218Q151 0 138 -6Q118 -15 107 -34T95 -74Q95 -84 101 -97T122 -127T170 -155T250 -167Q319 -167 361 -139T403 -75Z"></path>
<path stroke-width="1" id="E1-MJMAIN-2C" d="M78 35T78 60T94 103T137 121Q165 121 187 96T210 8Q210 -27 201 -60T180 -117T154 -158T130 -185T117 -194Q113 -194 104 -185T95 -172Q95 -168 106 -156T131 -126T157 -76T173 -3V9L172 8Q170 7 167 6T161 3T152 1T140 0Q113 0 96 17Z"></path>
<path stroke-width="1" id="E1-MJMAIN-2B" d="M56 237T56 250T70 270H369V420L370 570Q380 583 389 583Q402 583 409 568V270H707Q722 262 722 250T707 230H409V-68Q401 -82 391 -82H389H387Q375 -82 369 -68V230H70Q56 237 56 250Z"></path>
</defs>
<g stroke="currentColor" fill="currentColor" stroke-width="0" transform="matrix(1 0 0 -1 0 0)">
<g transform="translate(167,0)">
<g transform="translate(-11,0)">
<g transform="translate(0,4589)">
 <use xlink:href="#E1-MJMATHI-4B" x="0" y="0"></use>
 <use xlink:href="#E1-MJMATHI-4C" x="889" y="0"></use>
 <use xlink:href="#E1-MJMAIN-28" x="1571" y="0"></use>
<g transform="translate(1960,0)">
 <use xlink:href="#E1-MJMATHI-71" x="0" y="0"></use>
 <use transform="scale(0.707)" xlink:href="#E1-MJMATHI-3D5" x="631" y="-213"></use>
</g>
 <use xlink:href="#E1-MJMAIN-28" x="2928" y="0"></use>
 <use xlink:href="#E1-MJMAIN-7A" x="3318" y="0"></use>
 <use xlink:href="#E1-MJMAIN-7C" x="3762" y="0"></use>
<g transform="translate(4041,0)">
 <use xlink:href="#E1-MJMAIN-78" x="0" y="0"></use>
<g transform="translate(528,412)">
 <use transform="scale(0.707)" xlink:href="#E1-MJMAIN-28" x="0" y="0"></use>
 <use transform="scale(0.707)" xlink:href="#E1-MJMATHI-69" x="389" y="0"></use>
 <use transform="scale(0.707)" xlink:href="#E1-MJMAIN-29" x="734" y="0"></use>
</g>
</g>
 <use xlink:href="#E1-MJMAIN-29" x="5464" y="0"></use>
 <use xlink:href="#E1-MJMAIN-7C" x="5854" y="0"></use>
 <use xlink:href="#E1-MJMAIN-7C" x="6132" y="0"></use>
<g transform="translate(6411,0)">
 <use xlink:href="#E1-MJMATHI-70" x="0" y="0"></use>
 <use transform="scale(0.707)" xlink:href="#E1-MJMATHI-3B8" x="712" y="-219"></use>
</g>
 <use xlink:href="#E1-MJMAIN-28" x="7346" y="0"></use>
 <use xlink:href="#E1-MJMAIN-7A" x="7736" y="0"></use>
 <use xlink:href="#E1-MJMAIN-7C" x="8180" y="0"></use>
<g transform="translate(8459,0)">
 <use xlink:href="#E1-MJMAIN-78" x="0" y="0"></use>
<g transform="translate(528,412)">
 <use transform="scale(0.707)" xlink:href="#E1-MJMAIN-28" x="0" y="0"></use>
 <use transform="scale(0.707)" xlink:href="#E1-MJMATHI-69" x="389" y="0"></use>
 <use transform="scale(0.707)" xlink:href="#E1-MJMAIN-29" x="734" y="0"></use>
</g>
</g>
 <use xlink:href="#E1-MJMAIN-29" x="9883" y="0"></use>
 <use xlink:href="#E1-MJMAIN-29" x="10272" y="0"></use>
</g>
</g>
<g transform="translate(10651,0)">
<g transform="translate(0,4589)">
 <use xlink:href="#E1-MJMAIN-3D" x="277" y="0"></use>
<g transform="translate(1334,0)">
 <use xlink:href="#E1-MJAMS-45" x="0" y="0"></use>
<g transform="translate(667,-307)">
 <use transform="scale(0.707)" xlink:href="#E1-MJMATHI-71" x="0" y="0"></use>
 <use transform="scale(0.574)" xlink:href="#E1-MJMATHI-3D5" x="549" y="-291"></use>
 <use transform="scale(0.707)" xlink:href="#E1-MJMAIN-28" x="1030" y="0"></use>
 <use transform="scale(0.707)" xlink:href="#E1-MJMAIN-7A" x="1420" y="0"></use>
 <use transform="scale(0.707)" xlink:href="#E1-MJMAIN-7C" x="1864" y="0"></use>
<g transform="translate(1515,0)">
 <use transform="scale(0.707)" xlink:href="#E1-MJMAIN-78" x="0" y="0"></use>
<g transform="translate(373,220)">
 <use transform="scale(0.574)" xlink:href="#E1-MJMAIN-28" x="0" y="0"></use>
 <use transform="scale(0.574)" xlink:href="#E1-MJMATHI-69" x="389" y="0"></use>
 <use transform="scale(0.574)" xlink:href="#E1-MJMAIN-29" x="735" y="0"></use>
</g>
</g>
 <use transform="scale(0.707)" xlink:href="#E1-MJMAIN-29" x="3684" y="0"></use>
</g>
</g>
<g transform="translate(5149,0)">
 <use xlink:href="#E1-MJMAIN-6C"></use>
 <use xlink:href="#E1-MJMAIN-6F" x="278" y="0"></use>
 <use xlink:href="#E1-MJMAIN-67" x="779" y="0"></use>
</g>
<g transform="translate(6428,0)">
<g transform="translate(286,0)">
<rect stroke="none" width="4013" height="60" x="0" y="220"></rect>
<g transform="translate(60,815)">
 <use xlink:href="#E1-MJMATHI-71" x="0" y="0"></use>
 <use transform="scale(0.707)" xlink:href="#E1-MJMATHI-3D5" x="631" y="-213"></use>
 <use xlink:href="#E1-MJMAIN-28" x="968" y="0"></use>
 <use xlink:href="#E1-MJMAIN-7A" x="1357" y="0"></use>
 <use xlink:href="#E1-MJMAIN-7C" x="1802" y="0"></use>
<g transform="translate(2080,0)">
 <use xlink:href="#E1-MJMAIN-78" x="0" y="0"></use>
<g transform="translate(528,362)">
 <use transform="scale(0.707)" xlink:href="#E1-MJMAIN-28" x="0" y="0"></use>
 <use transform="scale(0.707)" xlink:href="#E1-MJMATHI-69" x="389" y="0"></use>
 <use transform="scale(0.707)" xlink:href="#E1-MJMAIN-29" x="734" y="0"></use>
</g>
</g>
 <use xlink:href="#E1-MJMAIN-29" x="3504" y="0"></use>
</g>
<g transform="translate(76,-840)">
 <use xlink:href="#E1-MJMATHI-70" x="0" y="0"></use>
 <use transform="scale(0.707)" xlink:href="#E1-MJMATHI-3B8" x="712" y="-219"></use>
 <use xlink:href="#E1-MJMAIN-28" x="935" y="0"></use>
 <use xlink:href="#E1-MJMAIN-7A" x="1324" y="0"></use>
 <use xlink:href="#E1-MJMAIN-7C" x="1769" y="0"></use>
<g transform="translate(2047,0)">
 <use xlink:href="#E1-MJMAIN-78" x="0" y="0"></use>
<g transform="translate(528,288)">
 <use transform="scale(0.707)" xlink:href="#E1-MJMAIN-28" x="0" y="0"></use>
 <use transform="scale(0.707)" xlink:href="#E1-MJMATHI-69" x="389" y="0"></use>
 <use transform="scale(0.707)" xlink:href="#E1-MJMAIN-29" x="734" y="0"></use>
</g>
</g>
 <use xlink:href="#E1-MJMAIN-29" x="3471" y="0"></use>
</g>
</g>
</g>
</g>
<g transform="translate(0,1490)">
 <use xlink:href="#E1-MJMAIN-3D" x="277" y="0"></use>
<g transform="translate(1334,0)">
 <use xlink:href="#E1-MJAMS-45" x="0" y="0"></use>
<g transform="translate(667,-307)">
 <use transform="scale(0.707)" xlink:href="#E1-MJMATHI-71" x="0" y="0"></use>
 <use transform="scale(0.574)" xlink:href="#E1-MJMATHI-3D5" x="549" y="-291"></use>
 <use transform="scale(0.707)" xlink:href="#E1-MJMAIN-28" x="1030" y="0"></use>
 <use transform="scale(0.707)" xlink:href="#E1-MJMAIN-7A" x="1420" y="0"></use>
 <use transform="scale(0.707)" xlink:href="#E1-MJMAIN-7C" x="1864" y="0"></use>
<g transform="translate(1515,0)">
 <use transform="scale(0.707)" xlink:href="#E1-MJMAIN-78" x="0" y="0"></use>
<g transform="translate(373,220)">
 <use transform="scale(0.574)" xlink:href="#E1-MJMAIN-28" x="0" y="0"></use>
 <use transform="scale(0.574)" xlink:href="#E1-MJMATHI-69" x="389" y="0"></use>
 <use transform="scale(0.574)" xlink:href="#E1-MJMAIN-29" x="735" y="0"></use>
</g>
</g>
 <use transform="scale(0.707)" xlink:href="#E1-MJMAIN-29" x="3684" y="0"></use>
</g>
</g>
<g transform="translate(5149,0)">
 <use xlink:href="#E1-MJMAIN-6C"></use>
 <use xlink:href="#E1-MJMAIN-6F" x="278" y="0"></use>
 <use xlink:href="#E1-MJMAIN-67" x="779" y="0"></use>
</g>
<g transform="translate(6428,0)">
<g transform="translate(286,0)">
<rect stroke="none" width="7152" height="60" x="0" y="220"></rect>
<g transform="translate(60,815)">
 <use xlink:href="#E1-MJMATHI-71" x="0" y="0"></use>
 <use transform="scale(0.707)" xlink:href="#E1-MJMATHI-3D5" x="631" y="-213"></use>
 <use xlink:href="#E1-MJMAIN-28" x="968" y="0"></use>
 <use xlink:href="#E1-MJMAIN-7A" x="1357" y="0"></use>
 <use xlink:href="#E1-MJMAIN-7C" x="1802" y="0"></use>
<g transform="translate(2080,0)">
 <use xlink:href="#E1-MJMAIN-78" x="0" y="0"></use>
<g transform="translate(528,362)">
 <use transform="scale(0.707)" xlink:href="#E1-MJMAIN-28" x="0" y="0"></use>
 <use transform="scale(0.707)" xlink:href="#E1-MJMATHI-69" x="389" y="0"></use>
 <use transform="scale(0.707)" xlink:href="#E1-MJMAIN-29" x="734" y="0"></use>
</g>
</g>
 <use xlink:href="#E1-MJMAIN-29" x="3504" y="0"></use>
<g transform="translate(3893,0)">
 <use xlink:href="#E1-MJMATHI-70" x="0" y="0"></use>
 <use transform="scale(0.707)" xlink:href="#E1-MJMATHI-3B8" x="712" y="-219"></use>
</g>
 <use xlink:href="#E1-MJMAIN-28" x="4829" y="0"></use>
<g transform="translate(5218,0)">
 <use xlink:href="#E1-MJMAIN-78" x="0" y="0"></use>
<g transform="translate(528,362)">
 <use transform="scale(0.707)" xlink:href="#E1-MJMAIN-28" x="0" y="0"></use>
 <use transform="scale(0.707)" xlink:href="#E1-MJMATHI-69" x="389" y="0"></use>
 <use transform="scale(0.707)" xlink:href="#E1-MJMAIN-29" x="734" y="0"></use>
</g>
</g>
 <use xlink:href="#E1-MJMAIN-29" x="6642" y="0"></use>
</g>
<g transform="translate(76,-840)">
 <use xlink:href="#E1-MJMATHI-70" x="0" y="0"></use>
 <use transform="scale(0.707)" xlink:href="#E1-MJMATHI-3B8" x="712" y="-219"></use>
 <use xlink:href="#E1-MJMAIN-28" x="935" y="0"></use>
 <use xlink:href="#E1-MJMAIN-7A" x="1324" y="0"></use>
 <use xlink:href="#E1-MJMAIN-7C" x="1769" y="0"></use>
<g transform="translate(2047,0)">
 <use xlink:href="#E1-MJMAIN-78" x="0" y="0"></use>
<g transform="translate(528,288)">
 <use transform="scale(0.707)" xlink:href="#E1-MJMAIN-28" x="0" y="0"></use>
 <use transform="scale(0.707)" xlink:href="#E1-MJMATHI-69" x="389" y="0"></use>
 <use transform="scale(0.707)" xlink:href="#E1-MJMAIN-29" x="734" y="0"></use>
</g>
</g>
 <use xlink:href="#E1-MJMAIN-29" x="3471" y="0"></use>
<g transform="translate(3861,0)">
 <use xlink:href="#E1-MJMATHI-70" x="0" y="0"></use>
 <use transform="scale(0.707)" xlink:href="#E1-MJMATHI-3B8" x="712" y="-219"></use>
</g>
 <use xlink:href="#E1-MJMAIN-28" x="4796" y="0"></use>
<g transform="translate(5186,0)">
 <use xlink:href="#E1-MJMAIN-78" x="0" y="0"></use>
<g transform="translate(528,288)">
 <use transform="scale(0.707)" xlink:href="#E1-MJMAIN-28" x="0" y="0"></use>
 <use transform="scale(0.707)" xlink:href="#E1-MJMATHI-69" x="389" y="0"></use>
 <use transform="scale(0.707)" xlink:href="#E1-MJMAIN-29" x="734" y="0"></use>
</g>
</g>
 <use xlink:href="#E1-MJMAIN-29" x="6609" y="0"></use>
</g>
</g>
</g>
</g>
<g transform="translate(0,-1609)">
 <use xlink:href="#E1-MJMAIN-3D" x="277" y="0"></use>
<g transform="translate(1334,0)">
 <use xlink:href="#E1-MJAMS-45" x="0" y="0"></use>
<g transform="translate(667,-307)">
 <use transform="scale(0.707)" xlink:href="#E1-MJMATHI-71" x="0" y="0"></use>
 <use transform="scale(0.574)" xlink:href="#E1-MJMATHI-3D5" x="549" y="-291"></use>
 <use transform="scale(0.707)" xlink:href="#E1-MJMAIN-28" x="1030" y="0"></use>
 <use transform="scale(0.707)" xlink:href="#E1-MJMAIN-7A" x="1420" y="0"></use>
 <use transform="scale(0.707)" xlink:href="#E1-MJMAIN-7C" x="1864" y="0"></use>
<g transform="translate(1515,0)">
 <use transform="scale(0.707)" xlink:href="#E1-MJMAIN-78" x="0" y="0"></use>
<g transform="translate(373,220)">
 <use transform="scale(0.574)" xlink:href="#E1-MJMAIN-28" x="0" y="0"></use>
 <use transform="scale(0.574)" xlink:href="#E1-MJMATHI-69" x="389" y="0"></use>
 <use transform="scale(0.574)" xlink:href="#E1-MJMAIN-29" x="735" y="0"></use>
</g>
</g>
 <use transform="scale(0.707)" xlink:href="#E1-MJMAIN-29" x="3684" y="0"></use>
</g>
</g>
<g transform="translate(5149,0)">
 <use xlink:href="#E1-MJMAIN-6C"></use>
 <use xlink:href="#E1-MJMAIN-6F" x="278" y="0"></use>
 <use xlink:href="#E1-MJMAIN-67" x="779" y="0"></use>
</g>
<g transform="translate(6428,0)">
<g transform="translate(286,0)">
<rect stroke="none" width="4147" height="60" x="0" y="220"></rect>
<g transform="translate(126,815)">
 <use xlink:href="#E1-MJMATHI-71" x="0" y="0"></use>
 <use transform="scale(0.707)" xlink:href="#E1-MJMATHI-3D5" x="631" y="-213"></use>
 <use xlink:href="#E1-MJMAIN-28" x="968" y="0"></use>
 <use xlink:href="#E1-MJMAIN-7A" x="1357" y="0"></use>
 <use xlink:href="#E1-MJMAIN-7C" x="1802" y="0"></use>
<g transform="translate(2080,0)">
 <use xlink:href="#E1-MJMAIN-78" x="0" y="0"></use>
<g transform="translate(528,362)">
 <use transform="scale(0.707)" xlink:href="#E1-MJMAIN-28" x="0" y="0"></use>
 <use transform="scale(0.707)" xlink:href="#E1-MJMATHI-69" x="389" y="0"></use>
 <use transform="scale(0.707)" xlink:href="#E1-MJMAIN-29" x="734" y="0"></use>
</g>
</g>
 <use xlink:href="#E1-MJMAIN-29" x="3504" y="0"></use>
</g>
<g transform="translate(60,-840)">
 <use xlink:href="#E1-MJMATHI-70" x="0" y="0"></use>
 <use transform="scale(0.707)" xlink:href="#E1-MJMATHI-3B8" x="712" y="-219"></use>
 <use xlink:href="#E1-MJMAIN-28" x="935" y="0"></use>
 <use xlink:href="#E1-MJMAIN-7A" x="1324" y="0"></use>
 <use xlink:href="#E1-MJMAIN-2C" x="1769" y="0"></use>
<g transform="translate(2214,0)">
 <use xlink:href="#E1-MJMAIN-78" x="0" y="0"></use>
<g transform="translate(528,288)">
 <use transform="scale(0.707)" xlink:href="#E1-MJMAIN-28" x="0" y="0"></use>
 <use transform="scale(0.707)" xlink:href="#E1-MJMATHI-69" x="389" y="0"></use>
 <use transform="scale(0.707)" xlink:href="#E1-MJMAIN-29" x="734" y="0"></use>
</g>
</g>
 <use xlink:href="#E1-MJMAIN-29" x="3638" y="0"></use>
</g>
</g>
</g>
 <use xlink:href="#E1-MJMAIN-2B" x="11205" y="0"></use>
<g transform="translate(12206,0)">
 <use xlink:href="#E1-MJAMS-45" x="0" y="0"></use>
<g transform="translate(667,-307)">
 <use transform="scale(0.707)" xlink:href="#E1-MJMATHI-71" x="0" y="0"></use>
 <use transform="scale(0.574)" xlink:href="#E1-MJMATHI-3D5" x="549" y="-291"></use>
 <use transform="scale(0.707)" xlink:href="#E1-MJMAIN-28" x="1030" y="0"></use>
 <use transform="scale(0.707)" xlink:href="#E1-MJMAIN-7A" x="1420" y="0"></use>
 <use transform="scale(0.707)" xlink:href="#E1-MJMAIN-7C" x="1864" y="0"></use>
<g transform="translate(1515,0)">
 <use transform="scale(0.707)" xlink:href="#E1-MJMAIN-78" x="0" y="0"></use>
<g transform="translate(373,220)">
 <use transform="scale(0.574)" xlink:href="#E1-MJMAIN-28" x="0" y="0"></use>
 <use transform="scale(0.574)" xlink:href="#E1-MJMATHI-69" x="389" y="0"></use>
 <use transform="scale(0.574)" xlink:href="#E1-MJMAIN-29" x="735" y="0"></use>
</g>
</g>
 <use transform="scale(0.707)" xlink:href="#E1-MJMAIN-29" x="3684" y="0"></use>
</g>
</g>
<g transform="translate(16021,0)">
 <use xlink:href="#E1-MJMAIN-6C"></use>
 <use xlink:href="#E1-MJMAIN-6F" x="278" y="0"></use>
 <use xlink:href="#E1-MJMAIN-67" x="779" y="0"></use>
</g>
<g transform="translate(17467,0)">
 <use xlink:href="#E1-MJMATHI-70" x="0" y="0"></use>
 <use transform="scale(0.707)" xlink:href="#E1-MJMATHI-3B8" x="712" y="-219"></use>
</g>
 <use xlink:href="#E1-MJMAIN-28" x="18402" y="0"></use>
<g transform="translate(18792,0)">
 <use xlink:href="#E1-MJMAIN-78" x="0" y="0"></use>
<g transform="translate(528,412)">
 <use transform="scale(0.707)" xlink:href="#E1-MJMAIN-28" x="0" y="0"></use>
 <use transform="scale(0.707)" xlink:href="#E1-MJMATHI-69" x="389" y="0"></use>
 <use transform="scale(0.707)" xlink:href="#E1-MJMAIN-29" x="734" y="0"></use>
</g>
</g>
 <use xlink:href="#E1-MJMAIN-29" x="20215" y="0"></use>
</g>
<g transform="translate(0,-4709)">
 <use xlink:href="#E1-MJMAIN-3D" x="277" y="0"></use>
<g transform="translate(1334,0)">
 <use xlink:href="#E1-MJAMS-45" x="0" y="0"></use>
<g transform="translate(667,-307)">
 <use transform="scale(0.707)" xlink:href="#E1-MJMATHI-71" x="0" y="0"></use>
 <use transform="scale(0.574)" xlink:href="#E1-MJMATHI-3D5" x="549" y="-291"></use>
 <use transform="scale(0.707)" xlink:href="#E1-MJMAIN-28" x="1030" y="0"></use>
 <use transform="scale(0.707)" xlink:href="#E1-MJMAIN-7A" x="1420" y="0"></use>
 <use transform="scale(0.707)" xlink:href="#E1-MJMAIN-7C" x="1864" y="0"></use>
<g transform="translate(1515,0)">
 <use transform="scale(0.707)" xlink:href="#E1-MJMAIN-78" x="0" y="0"></use>
<g transform="translate(373,220)">
 <use transform="scale(0.574)" xlink:href="#E1-MJMAIN-28" x="0" y="0"></use>
 <use transform="scale(0.574)" xlink:href="#E1-MJMATHI-69" x="389" y="0"></use>
 <use transform="scale(0.574)" xlink:href="#E1-MJMAIN-29" x="735" y="0"></use>
</g>
</g>
 <use transform="scale(0.707)" xlink:href="#E1-MJMAIN-29" x="3684" y="0"></use>
</g>
</g>
<g transform="translate(5149,0)">
 <use xlink:href="#E1-MJMAIN-6C"></use>
 <use xlink:href="#E1-MJMAIN-6F" x="278" y="0"></use>
 <use xlink:href="#E1-MJMAIN-67" x="779" y="0"></use>
</g>
<g transform="translate(6428,0)">
<g transform="translate(286,0)">
<rect stroke="none" width="4147" height="60" x="0" y="220"></rect>
<g transform="translate(126,815)">
 <use xlink:href="#E1-MJMATHI-71" x="0" y="0"></use>
 <use transform="scale(0.707)" xlink:href="#E1-MJMATHI-3D5" x="631" y="-213"></use>
 <use xlink:href="#E1-MJMAIN-28" x="968" y="0"></use>
 <use xlink:href="#E1-MJMAIN-7A" x="1357" y="0"></use>
 <use xlink:href="#E1-MJMAIN-7C" x="1802" y="0"></use>
<g transform="translate(2080,0)">
 <use xlink:href="#E1-MJMAIN-78" x="0" y="0"></use>
<g transform="translate(528,362)">
 <use transform="scale(0.707)" xlink:href="#E1-MJMAIN-28" x="0" y="0"></use>
 <use transform="scale(0.707)" xlink:href="#E1-MJMATHI-69" x="389" y="0"></use>
 <use transform="scale(0.707)" xlink:href="#E1-MJMAIN-29" x="734" y="0"></use>
</g>
</g>
 <use xlink:href="#E1-MJMAIN-29" x="3504" y="0"></use>
</g>
<g transform="translate(60,-840)">
 <use xlink:href="#E1-MJMATHI-70" x="0" y="0"></use>
 <use transform="scale(0.707)" xlink:href="#E1-MJMATHI-3B8" x="712" y="-219"></use>
 <use xlink:href="#E1-MJMAIN-28" x="935" y="0"></use>
 <use xlink:href="#E1-MJMAIN-7A" x="1324" y="0"></use>
 <use xlink:href="#E1-MJMAIN-2C" x="1769" y="0"></use>
<g transform="translate(2214,0)">
 <use xlink:href="#E1-MJMAIN-78" x="0" y="0"></use>
<g transform="translate(528,288)">
 <use transform="scale(0.707)" xlink:href="#E1-MJMAIN-28" x="0" y="0"></use>
 <use transform="scale(0.707)" xlink:href="#E1-MJMATHI-69" x="389" y="0"></use>
 <use transform="scale(0.707)" xlink:href="#E1-MJMAIN-29" x="734" y="0"></use>
</g>
</g>
 <use xlink:href="#E1-MJMAIN-29" x="3638" y="0"></use>
</g>
</g>
</g>
 <use xlink:href="#E1-MJMAIN-2B" x="11205" y="0"></use>
<g transform="translate(12206,0)">
 <use xlink:href="#E1-MJMAIN-6C"></use>
 <use xlink:href="#E1-MJMAIN-6F" x="278" y="0"></use>
 <use xlink:href="#E1-MJMAIN-67" x="779" y="0"></use>
</g>
<g transform="translate(13652,0)">
 <use xlink:href="#E1-MJMATHI-70" x="0" y="0"></use>
 <use transform="scale(0.707)" xlink:href="#E1-MJMATHI-3B8" x="712" y="-219"></use>
</g>
 <use xlink:href="#E1-MJMAIN-28" x="14587" y="0"></use>
<g transform="translate(14977,0)">
 <use xlink:href="#E1-MJMAIN-78" x="0" y="0"></use>
<g transform="translate(528,412)">
 <use transform="scale(0.707)" xlink:href="#E1-MJMAIN-28" x="0" y="0"></use>
 <use transform="scale(0.707)" xlink:href="#E1-MJMATHI-69" x="389" y="0"></use>
 <use transform="scale(0.707)" xlink:href="#E1-MJMAIN-29" x="734" y="0"></use>
</g>
</g>
 <use xlink:href="#E1-MJMAIN-29" x="16400" y="0"></use>
</g>
</g>
</g>
</g>
</svg>